<?xml version="1.0" encoding="UTF-8" standalone="no"?>
<!-- Created with Inkscape (http://www.inkscape.org/) -->

<svg
   version="1.1"
   id="svg1"
   width="662.75867"
   height="949.75018"
   viewBox="0 0 662.75867 949.75019"
   sodipodi:docname="Goat.svg"
   inkscape:version="1.3.2 (091e20ef0f, 2023-11-25)"
   xmlns:inkscape="http://www.inkscape.org/namespaces/inkscape"
   xmlns:sodipodi="http://sodipodi.sourceforge.net/DTD/sodipodi-0.dtd"
   xmlns="http://www.w3.org/2000/svg"
   xmlns:svg="http://www.w3.org/2000/svg">
  <defs
     id="defs1" />
  <sodipodi:namedview
     id="namedview1"
     pagecolor="#ffffff"
     bordercolor="#000000"
     borderopacity="0.25"
     inkscape:showpageshadow="2"
     inkscape:pageopacity="0.0"
     inkscape:pagecheckerboard="0"
     inkscape:deskcolor="#d1d1d1"
     showgrid="false"
     inkscape:zoom="0.76351725"
     inkscape:cx="453.16592"
     inkscape:cy="448.58187"
     inkscape:window-width="1920"
     inkscape:window-height="1011"
     inkscape:window-x="0"
     inkscape:window-y="0"
     inkscape:window-maximized="1"
     inkscape:current-layer="layer1" />
  <g
     inkscape:groupmode="layer"
     id="layer1"
     inkscape:label="Layer 1"
     transform="translate(-5.0755079,-27.386024)">
    <path
       id="path4"
       style="fill:#917c6f;stroke-width:0.5"
       d="m 477.68095,31.979239 -9.98633,7.890625 -1.99609,10.587891 -16.6211,-4.691407 -16.16211,4.863282 -6.81836,11.109375 1.53125,7.873047 c 1.63894,-0.286004 19.5586,-3.173829 19.5586,-3.173829 l 14.88086,13.484375 14.09179,28.105472 11.30664,23.9082 11.94336,12.42578 c 0,0 4.92968,-6.59289 6.03125,-8.26758 1.10156,-1.67468 3.52539,-7.97656 3.52539,-7.97656 l 14.17774,-2.69922 1.9043,-8.95117 -3.20508,-34.054687 -9.72266,-28.666016 -13.42578,-18.662109 z m 1.65625,21.101562 8.49804,2.492188 6.5,12.224609 3.14063,13.046875 -7.43164,-0.1875 -16.76758,-24.867187 z" />
    <path
       style="fill:#e3dbdb;stroke-width:0.5"
       d="m 547.24265,580.69254 0.26695,22.91078 -4.69674,43.55432 -5.33948,35.42635 -1.84569,16.42907 -15.1273,-4.85719 -25.26866,-7.16614 -12.90358,31.59173 -3.48108,14.09113 -3.59349,85.96458 0.89475,46.35188 20.01259,25.50708 12.97156,15.67846 6.76636,9.43428 -16.95849,10.85028 -39.71062,0.15864 -3.27621,-8.35006 1.15764,-25.12544 -17.06364,-15.02667 4.52359,-85.06349 -8.69001,-29.29095 c 0,0 3.77933,-46.73533 4.24347,-48.44324 0.46415,-1.7079 -5.36304,-41.45932 -5.36304,-41.45932 l -13.98597,-40.55913 -12.22911,-11.58276 -12.63977,2.5528 -27.85138,18.81778 c 0,0 -35.19881,5.74288 -36.88315,5.97495 -1.68433,0.23207 -59.8184,-7.36376 -59.8184,-7.36376 l -5.15454,6.84885 -12.29891,47.71892 -11.58729,19.25655 -18.89031,-5.65041 -15.08468,-1.92457 -5.16361,-8.58123 -12.25812,-11.75318 -13.6016,-2.9843 -12.92805,21.32887 -17.31838,20.42598 -5.96317,-4.98684 10.66172,-30.98434 -1.39243,-20.47402 -5.07295,-8.3546 8.04819,-9.33818 c 0,0 6.24237,-6.27682 6.93043,-7.37463 0.68806,-1.09781 -2.07958,-18.04905 -2.07958,-18.04905 l 8.30201,-12.81292 3.79384,-6.86063 c 0,0 -19.85758,-33.12648 -19.85758,-34.3503 0,-1.22382 2.48299,-16.41276 2.48299,-16.41276 l 13.33962,-17.6411 -23.97867,-22.6642 c 0,0 -2.74861,-19.87752 -2.51653,-20.88105 0.23207,-1.00353 2.95892,-20.56377 2.95892,-20.56377 l 10.40789,-19.28283 13.46108,-24.30231 10.69436,-15.80538 28.41614,0.8594 c 0,0 42.64144,0.64726 43.73109,0.64726 1.08965,0 37.78333,-3.01694 37.78333,-3.01694 l 41.58443,-3.62794 c 0,0 43.01493,-7.37463 44.93405,-7.37463 1.91913,0 31.78119,-4.75657 31.78119,-4.75657 l 0.0625,51.58709 -5.77279,10.98626 -15.4056,15.46996 1.72875,54.53332 -35.30397,16.66387 -1.12772,10.03621 23.43022,9.07166 36.05639,8.51233 26.23684,41.1375 40.47483,29.13412 26.42358,15.82804 4.77833,-26.08001 3.70862,-23.50092 8.46429,-12.34425 19.46777,-13.87174 z"
       id="path3" />
    <path
       id="path2"
       style="fill:#784421;stroke-width:0.5"
       d="m 551.39189,57.199942 c 0,0 -10.21567,4.25802 -11.01563,5.972656 -0.79995,1.714637 -10.01758,19.441407 -10.01758,19.441407 0,0 -1.20703,33.397215 -1.20703,35.089845 0,1.69264 1.70909,9.84961 -0.80078,9.84961 -2.50988,0 -22.51367,1.11719 -22.51367,1.11719 l -4.22266,15.85351 c 0,0 -1.53714,6.1243 -3.14648,3.95703 -1.60934,-2.16726 -18.66809,-20.46554 -20.39844,-22.02929 -1.73035,-1.56376 -24.6582,-18.83985 -24.6582,-18.83985 l -30.41602,-11.529295 -9.63476,-2.023438 -6.0879,4.21875 2.19141,10.625003 21.95117,30.30078 30.37305,25.30273 -0.0469,8.95313 -9.21679,36.8789 -0.16211,67.94141 c 0,0 -5.76174,46.0422 -6.56641,48.73438 -0.80467,2.69218 -23.78515,57.16406 -23.78515,57.16406 l -17.90625,17.04101 0.98828,16.92383 -3.02344,34.26563 -4.29688,8.02929 -10.69921,11.22071 c 0,0 -2.41407,25.54719 -2.41407,27.64843 0,2.10126 1.20703,28.47657 1.20703,28.47657 l -16.40039,10.80273 -22.67578,11.37891 6.21875,10.34375 25.96485,7.17383 26.60742,8.18554 13.23242,13.77149 19.98633,30.16992 45.72656,32.13672 14.01953,7.89843 7.28516,-10.69335 2.35547,-32.1504 7.93164,-15.04296 c 0,0 29.04573,-24.00923 31.80078,-25.58399 2.75505,-1.57476 13.77148,-23.87305 13.77148,-23.87305 0,0 11.96764,-34.50243 13.3711,-36.91015 1.40346,-2.40773 2.57031,-56.21875 2.57031,-56.21875 l -4.94336,-79.25781 -8.60352,-87.74024 2.28907,-22.35156 15.96679,-2.125 40.23243,4.4668 27.70117,-13.26172 15.54297,-13.82227 -2.01172,-10.4414 -48.4668,-45.35743 -18.34766,-14.73437 -14.51171,-28.90625 -24.21094,-17.8125 -1.16797,-26.51563 z M 163.98759,415.37768 c -1.44081,0.49643 -14.85381,3.94515 -16.25195,4.19336 -1.39814,0.24822 -36.27735,12.85742 -36.27735,12.85742 l -37.910154,29.18359 -15.59961,15.07617 c 0,0 -23.994509,10.15343 -26.082031,11.11914 -2.087521,0.96571 -21.304688,11.79102 -21.304688,11.79102 l 2.234375,13.42969 9.091797,1.95703 c 0,0 16.345857,-2.19888 17.453125,-2.69531 1.107269,-0.49643 9.701172,3.91015 9.701172,3.91015 l 13.640625,77.65039 15.775391,77.64453 -8.992188,52.51758 -23.154297,60.19531 c 0,0 35.698884,93.10008 36.195313,94.52344 0.496428,1.42335 7.730469,31.79297 7.730469,31.79297 l 1.691406,25.02344 8.794925,1.12109 6.65429,6.87305 -0.74414,25.37109 22.80664,4.19727 32.94727,-6.62695 9.67969,-6.99024 -8.83594,-18.17383 c 0,0 -23.74264,-8.81814 -24.89063,-8.10937 -1.14798,0.70877 -10.2832,-22.23828 -10.2832,-22.23828 l -25.73633,-71.40625 -8.4707,-59.35743 45.52539,-42.31445 5.76367,-15.38476 -1.28125,-13.57618 c 0,0 7.19352,-20.32114 6.94531,-21.92968 -0.24821,-1.60854 0.71307,-17.3571 0.46485,-18.53321 -0.24821,-1.17611 -4.09961,-3.68164 -4.09961,-3.68164 l 1.16992,-6.07226 10.36524,-9.44141 0.37109,-10.1543 c 0,0 1.22707,-13.96843 0.48242,-15.14648 -0.74464,-1.17805 11.96484,-14.38281 11.96484,-14.38281 L 153.1536,577.51635 c 0,0 -2.41601,-11.16953 -2.41601,-12.33789 0,-1.16835 14.91601,-23.79297 14.91601,-23.79297 l -4.54296,-8.55469 -18.36524,-19.70508 c 0,0 -0.9668,-31.62446 -0.9668,-33.04297 0,-1.4185 16.13086,-36.1621 16.13086,-36.1621 l 17.33789,-26.50782 c 0,0 -9.81895,-2.53157 -11.25976,-2.03515 z m 16.52148,270.23242 -4.04297,3.36719 -6.30468,16.32226 -3.19336,16.33789 -13.37305,26.70703 -15.10547,20.29297 27.85742,25.27344 10.36719,19.91797 54.36719,107.57031 6.55859,0.22266 16.25391,0.90234 4.96289,19.42188 6.36133,3.66992 21.41992,-1.22071 c 0,0 31.28138,-8.69081 32.38476,-9.15234 1.10335,-0.46152 0.0254,-8.54101 0.0254,-8.54101 l -18.98438,-15.56641 -25.23242,-7.36914 -20.45117,-13.49414 -18.34571,-26.83203 -33.48437,-80.50586 -3.47461,-13.57422 c 0,0 32.31752,-38.37803 33.55859,-40.29297 1.24107,-1.91494 7.91407,-13.72266 7.91407,-13.72266 l -23.02344,-4.24804 -11.81055,-6.64453 c 0,0 -12.19319,-13.70648 -12.44141,-15.25782 -0.2482,-1.55134 -12.76367,-3.58398 -12.76367,-3.58398 z m 325.78907,2.44726 -6.88086,0.92579 -8.73243,9.7246 8.24414,18.33594 16.11133,88.57813 c 0,0 10.25843,39.03517 10.48047,40.39453 0.22204,1.35936 1.71094,8.06055 1.71094,8.06055 0,0 13.33726,6.71875 14.33594,6.71875 0.99867,0 8.52929,17.89648 8.52929,17.89648 l 0.50977,9.96094 15.70508,3.83789 c 0,0 20.08972,0.54704 21.1582,0.29883 1.06849,-0.24822 16.10352,-8.10743 16.10352,-8.10743 l -5.65039,-11.39257 -28.11133,-19.96875 -12.04492,-18.27735 -8.76368,-22.89453 -14.9707,-70.43164 0.16016,-39.37305 -12.88477,-8.08203 z" />
    <path
       id="path1"
       style="fill:#000000"
       d="m 481.83915,27.438223 c -8.35858,0.512073 -15.61666,4.77743 -18.63281,11.996094 l -1.80469,4.318359 -10.36719,-0.666015 c -9.16288,-0.588271 -11.06417,-0.289868 -16.36718,2.560547 -13.7275,7.378628 -18.85176,25.533283 -12.6875,44.955078 0.657,2.070014 -0.0117,2.271855 -5.70704,1.724609 -5.46106,-0.524739 -7.0412,-0.111514 -10.29296,2.685547 -3.75396,3.229018 -3.80103,3.435175 -2.11914,9.144528 5.50762,18.69633 14.45478,30.43149 34.55664,45.32227 7.10412,5.26247 14.49325,11.02304 16.41992,12.80273 l 3.50195,3.23633 -3.90039,12.24024 c -6.77889,21.26877 -7.76074,30.88639 -7.77734,76.24218 -0.0166,45.24249 -0.67981,52.21441 -6.84375,72 -12.67649,40.69009 -21.1161,59.03262 -29.13868,63.32618 -2.49057,1.33289 -32.07366,7.16337 -70.67968,13.92968 -43.66088,7.65228 -77.99038,9.74714 -122.02735,7.44532 -34.86117,-1.82222 -53.99535,-0.6389 -74.7539,4.62695 -24.29592,6.16315 -47.653666,20.08555 -70.191409,41.83594 -11.579459,11.17491 -13.984453,12.86063 -22.396484,15.69336 -19.909423,6.70441 -42.4351875,20.75563 -44.902344,28.00976 -1.758443,5.17034 0.082701,11.26627 4.986328,16.51563 3.939505,4.21724 4.25206,4.30601 12.330078,3.49804 4.558843,-0.45598 10.446423,-1.20361 13.082032,-1.66211 l 4.791015,-0.83398 0.798828,11.14062 c 0.439734,6.12739 2.564121,17.74001 4.720703,25.80664 2.156585,8.06667 7.842232,29.14155 12.632813,46.83204 11.451349,42.28707 13.457629,54.55582 12.591797,76.96875 -0.554723,14.35948 -1.541863,20.8426 -5.451172,35.81445 -4.368028,16.72862 -16.226151,49.25117 -22.363281,61.33203 -1.382169,2.72078 -2.513672,5.82835 -2.513672,6.90625 0,1.0779 6.853504,18.44619 15.230469,38.5957 22.902763,55.08913 27.173351,69.96745 28.384765,98.88477 0.399374,9.5333 1.323639,18.08333 2.052735,19 0.729093,0.91666 3.690289,1.66601 6.582031,1.66601 9.934298,0 10.334628,0.72144 9.468748,17.13477 -0.84173,15.95557 -0.82678,15.99134 7.57031,17.63672 8.20846,1.60842 24.79725,1.2967 34.92774,-0.65625 12.71175,-2.45056 30.51816,-8.96058 32.31836,-11.81445 2.12111,-3.36267 -6.87725,-20.75731 -13.70117,-26.48633 -2.93147,-2.46112 -9.71641,-5.97682 -15.07813,-7.8125 l -9.74805,-3.33789 -7.78711,-18.66407 C 115.41138,868.64155 103.97176,829.86699 99.298136,798.00072 l -2.152344,-14.66797 8.427738,-7.26953 c 10.49134,-9.05148 45.56923,-43.98509 52.27734,-52.0625 l 4.98242,-6 -0.91211,4.66602 c -1.38467,7.07688 -4.73332,12.87136 -16.50195,28.55273 -6.49111,8.64923 -10.75195,15.59643 -10.75195,17.53125 0,2.39 3.23331,6.00697 12.71875,14.22657 14.47327,12.54175 19.25866,19.24863 31.65234,44.35546 12.08081,24.47303 48.36527,94.144 50.67187,97.29688 1.67955,2.29575 2.38081,2.42298 5.50391,1 1.96811,-0.89673 5.96243,-1.62891 8.87695,-1.62891 6.21188,0 7.28214,1.70547 8.59766,13.70118 1.21101,11.042 3.56939,12.31826 22.58984,12.23046 13.65479,-0.0631 15.94391,-0.47666 31.57813,-5.6914 9.27102,-3.09233 17.58824,-6.50266 18.48242,-7.58008 2.24117,-2.70045 0.96171,-6.63254 -5.21484,-16.0332 -6.57023,-9.99977 -11.56367,-12.87245 -28.79102,-16.57032 -17.34171,-3.72238 -24.61186,-7.90573 -35.08789,-20.18554 -11.1308,-13.04737 -31.42624,-53.58232 -44.02734,-87.93555 l -9.07032,-24.73047 13.92188,-14.60351 c 15.72156,-16.48946 28.9654,-35.56322 39.76367,-57.26954 7.05875,-14.18926 9.23419,-21.85612 13.19336,-46.52343 l 0.83203,-5.18946 10.23828,0.82618 c 5.63048,0.45415 18.93701,1.77728 29.57032,2.9414 38.48559,4.21334 65.42619,-2.04923 86.60937,-20.13086 8.10138,-6.9152 9.59206,-6.6505 16.12695,2.84766 8.91942,12.9639 15.21829,31.05515 19.45899,55.89648 3.1708,18.57377 3.18633,54.11647 0.0293,66.05078 -2.08692,7.88905 -2.11682,9.25585 -0.3086,14.38086 4.46915,12.66688 6.18139,27.14746 5.85938,49.56836 -0.17378,12.09997 -0.34411,31.29449 -0.37891,42.6543 l -0.0645,20.6543 4.96289,2.33789 c 7.94895,3.74593 9.54129,8.35402 9.19922,26.61523 l -0.29102,15.59571 7.06445,2.21679 c 9.51743,2.98721 27.40259,3.99253 35.36914,1.98828 10.1744,-2.55968 25.63401,-9.45487 27.0254,-12.05468 2.83429,-5.29597 -9.81713,-22.89111 -24.0918,-33.50586 -16.40607,-12.19969 -18.68551,-24.45515 -16.03125,-86.20118 0.93708,-21.79938 1.54263,-45.33411 1.3457,-52.30078 -0.30744,-10.87666 0.16111,-14.22242 3.32031,-23.66797 2.02353,-6.04997 3.85156,-11 4.06055,-11 0.209,0 1.95985,2.38711 3.89063,5.30469 2.91954,4.41177 3.50976,6.81768 3.50976,14.28906 0,12.60444 5.88864,45.2001 12.71875,70.40625 6.71884,24.79549 8.61524,34.49844 8.61524,44.08204 0,7.71131 0.59366,8.44886 9.43945,11.71289 9.71678,3.58539 13.28159,8.31128 15.38281,20.39453 0.98852,5.68451 2.60697,11.146 3.5957,12.13476 0.98876,0.98876 7.64561,2.99106 14.79297,4.45118 10.51499,2.14805 14.37345,2.40052 20.2168,1.32031 8.55436,-1.58136 26.9884,-7.94521 28.06641,-9.68946 2.9476,-4.76934 -11.75507,-21.14706 -29.09375,-32.40625 -8.87505,-5.76316 -11.0832,-8.02125 -16.29297,-16.66601 -6.83341,-11.33889 -8.84678,-16.55837 -13.56055,-35.14649 -7.98809,-31.5 -12.54687,-61.98307 -12.54687,-83.90234 0,-6.56481 2.32696,-28.00466 5.2832,-48.67578 6.43173,-44.97335 8.04883,-60.5944 8.04883,-77.70313 v -13.14453 l 6.10742,-10.05859 c 17.37913,-28.62579 24.55737,-57.88071 24.54687,-100.03516 -0.0124,-49.59508 -2.69719,-81.3654 -12.00195,-142 -3.37885,-22.01819 -4.04958,-54.29688 -1.16601,-56.12304 2.79415,-1.76956 12.28915,-1.34301 28.07617,1.26172 21.19913,3.49767 41.06949,1.16824 45.63476,-5.34961 0.96662,-1.38004 4.86714,-3.31486 8.66797,-4.30079 3.80085,-0.9859 8.34136,-3.13667 10.08985,-4.77929 3.86932,-3.63507 6.60064,-14.20027 5.71093,-22.09375 -1.09868,-9.74738 -7.55418,-16.83495 -36.38672,-39.94922 l -26.61132,-21.33399 -6.75391,-13.70312 C 589.9044,145.3779 582.15169,136.82831 569.30004,130.07494 l -8.86524,-4.6582 0.59375,-13.70899 c 0.33268,-7.66371 -0.35138,-23.189085 -1.55078,-35.210933 -1.17994,-11.826767 -2.14453,-22.155733 -2.14453,-22.953125 0,-0.797392 -1.22455,-2.105534 -2.7207,-2.90625 -5.59459,-2.994123 -18.9219,9.142052 -25.17969,22.927735 l -3.56445,7.849609 -2.30078,-9.585938 c -4.53451,-18.893727 -15.15808,-35.57185 -26.17383,-41.08789 -5.12748,-2.567539 -10.53953,-3.609976 -15.55469,-3.302735 z m 1.60742,9.894532 c 13.75023,0 25.1512,14.875838 31.67774,41.333984 2.64474,10.721707 5.45058,39.985711 3.96679,41.369141 -0.60013,0.55954 -3.04052,1.4275 -5.42382,1.92969 l -4.33399,0.91211 v -6.00782 c 0,-13.17987 -4.70361,-39.478707 -9.09765,-50.869137 -6.26915,-16.251036 -17.57356,-23.584011 -26.60547,-17.257812 -2.78486,1.950582 -2.96289,1.903946 -2.96289,-0.769531 0,-4.790677 7.0248,-10.640625 12.77929,-10.640625 z m -35.16992,15.128906 c 1.87347,0.04181 3.82138,0.339319 5.81836,0.898437 8.21727,2.300694 20.33809,13.535446 27.36719,25.367188 6.40412,10.779748 13.58506,30.306644 16.57812,45.078124 3.04641,15.0346 2.45854,16.4265 -3.9375,9.33008 -3.85815,-4.28067 -6.40558,-9.25178 -9.71289,-18.95703 -14.11175,-41.410892 -32.22278,-59.894431 -49.78906,-50.810549 -4.84488,2.505375 -5.03098,0.808218 -0.50195,-4.574219 3.60552,-4.284937 8.55733,-6.457455 14.17773,-6.332031 z m 32.97461,3.96289 c 2.72344,0.728699 7.86645,7.677769 10.0293,14.025391 2.24693,6.594351 1.86046,8.903552 -0.66992,3.998047 -0.88352,-1.712801 -3.92719,-6.232502 -6.76368,-10.042969 -3.5361,-4.750328 -4.66846,-7.23002 -3.59961,-7.890625 0.27455,-0.16968 0.61485,-0.193941 1.00391,-0.08984 z m 66.61328,8.570313 0.77149,3.169922 c 1.17932,4.847029 2.75514,36.858764 2.24023,45.501954 -0.36868,6.18867 -0.88211,7.61978 -2.66602,7.42578 -1.21543,-0.13218 -5.05966,-0.46361 -8.54296,-0.73828 l -6.33399,-0.5 0.01,-9.59375 c 0.0199,-18.961 4.57649,-35.922957 11.36328,-42.298829 z m -104.5039,5.933594 c 0.8001,-0.04833 1.63491,0.03288 2.5,0.25 7.15441,1.795645 20.36143,21.167896 26.69335,39.154292 1.09719,3.11667 1.87151,5.64098 1.72071,5.60938 -0.15081,-0.0316 -4.77542,-2.83642 -10.27539,-6.23438 -5.5,-3.39793 -14.79935,-8.15945 -20.66602,-10.580073 l -10.66601,-4.400391 0.40234,-5.697266 c 0.7827,-11.06361 4.69017,-17.76326 10.29102,-18.101562 z m -25.10157,26.447265 c 7.2646,-0.105276 36.76707,16.143647 54.61719,30.082027 12.68334,9.90386 17.06452,15.11692 20.29297,24.14063 1.89035,5.28363 2.86145,6.40234 5.56055,6.40234 2.71156,0 3.34226,-0.73739 3.6875,-4.31445 0.25356,-2.62705 1.98796,-5.8864 4.4375,-8.33594 3.29503,-3.29503 3.86767,-4.73007 3.16406,-7.93359 -0.79947,-3.63993 -0.50633,-4.0088 4.22851,-5.33399 17.03951,-4.76898 34.27097,-2.41216 50.79688,6.94727 11.90508,6.74243 17.19224,12.81515 24.16601,27.76172 2.87629,6.16456 6.93049,13.10931 9.00977,15.43359 2.07927,2.3243 12.86291,11.37755 23.96484,20.11719 28.30519,22.28233 38.86088,31.97604 39.88282,36.62891 0.72027,3.27934 0.0381,4.6802 -4.5,9.26367 -7.16833,7.23996 -12.90345,7.85339 -28.23438,3.01562 -14.66302,-4.627 -22.901,-5.51423 -25.22265,-2.71679 -1.48655,1.79116 -1.18954,2.2845 2.07812,3.46093 2.09638,0.75476 6.1182,2.5641 8.9375,4.02149 2.8193,1.45739 6.53316,2.65039 8.25391,2.65039 1.72076,0 3.4999,0.60065 3.95312,1.33398 0.45323,0.73333 2.43872,1.34232 4.41211,1.35352 6.94603,0.0395 0.12425,2.34462 -9.59961,3.24414 -6.23275,0.57657 -13.8184,0.16876 -22.14648,-1.18945 -14.04138,-2.28998 -27.44924,-2.71044 -28.57032,-0.89649 -1.53689,2.48678 -12.54893,2.99954 -18.80664,0.875 -12.98804,-4.40955 -31.45335,-16.31783 -36.39843,-23.47265 -4.70667,-6.80986 -9.56407,-7.27434 -9.54297,-0.91407 0.0108,3.24478 1.39021,5.77112 5.49023,10.0586 8.99152,9.40258 27.56949,20.47935 38.69922,23.07226 l 7.12891,1.66016 0.14843,20.77148 c 0.11977,16.80247 1.06994,26.63959 4.97461,51.48828 5.93172,37.74836 6.97634,48.33555 8.96485,90.89844 2.73295,58.49716 -1.89344,89.78341 -17.60742,119.05078 -7.59226,14.14058 -10.58934,17.66835 -22.21094,26.15625 -13.10051,9.56802 -23.8246,19.88744 -26.85742,25.84375 -1.56091,3.06555 -2.69781,9.4694 -3.31446,18.66602 -0.5163,7.69997 -1.35088,16.3515 -1.85547,19.22461 -0.50457,2.8731 -1.55505,5.43567 -2.33398,5.69531 -1.49147,0.49716 -14.50525,-5.95303 -24.59961,-12.19141 -3.28548,-2.03041 -9.57461,-7.15644 -13.97461,-11.39257 -4.39997,-4.23615 -10.16934,-8.70087 -12.82031,-9.91993 -5.83834,-2.68478 -10.51367,-6.85504 -10.51367,-9.3789 0,-1.02229 -3.2763,-5.94511 -7.28125,-10.93945 -4.00498,-4.99436 -8.05498,-10.58378 -9,-12.42188 -3.36243,-6.54004 -9.28166,-14.70568 -11.48242,-15.83789 -1.22926,-0.6324 -6.78897,-1.54502 -12.35352,-2.0293 -11.81559,-1.02831 -22.22495,-4.51047 -27.99219,-9.36328 -2.62755,-2.21097 -5.70167,-3.44531 -8.58008,-3.44531 -2.46709,0 -4.80994,-0.52546 -5.20703,-1.16797 -1.12091,-1.81367 7.95683,-7.32253 22.27149,-13.51562 7.25039,-3.13682 13.65277,-6.78949 14.42187,-8.22657 0.97788,-1.82718 0.86888,-5.39338 -0.37304,-12.16992 -0.96625,-5.2722 -1.75586,-17.13491 -1.75586,-26.36133 v -16.77539 l 10.17968,-9.89258 c 12.29991,-11.95149 12.49998,-12.70629 11.12891,-41.96093 l -0.96289,-20.52149 8.92187,-8.31054 c 11.06073,-10.3036 16.46287,-20.8886 26.86914,-52.64454 11.83649,-36.12034 11.6431,-34.68445 11.89649,-88.45312 0.23366,-49.58231 0.6075,-53.45563 7.06641,-73.05859 l 2.32617,-7.05665 3.18554,3.39063 c 3.45654,3.67933 8.85563,4.73398 7.60938,1.48633 -0.40213,-1.04793 -1.13232,-4.03722 -1.62109,-6.64258 -1.25642,-6.69724 -9.11459,-15.02072 -26.39844,-27.95703 -17.25866,-12.91746 -25.92038,-21.72976 -30.7793,-31.31836 -1.90739,-3.76404 -4.01594,-6.84375 -4.6875,-6.84375 -0.67156,0 -1.61702,-1.24511 -2.09961,-2.76563 -1.02646,-3.23403 2.41283,-6.459537 6.95703,-6.525387 z m 130.98047,74.876957 c -0.87195,-0.0203 -1.81288,0.0618 -2.8125,0.26172 -7.57766,1.51551 -10.51283,8.4168 -4.75976,11.1914 4.732,2.28217 9.54082,1.86076 12.03711,-1.05469 4.35253,-5.08339 1.63884,-10.25611 -4.46485,-10.39843 z m -149.90625,230.36523 0.41992,23.30664 c 0.47881,26.57378 -0.21148,29.29283 -9.16797,36.07617 -2.90477,2.2 -6.81891,6.52659 -8.69726,9.61524 -3.35415,5.51533 -3.40362,5.96887 -2.75,25.33398 0.36603,10.84465 1.06011,22.13945 1.54297,25.10156 l 0.8789,5.38672 -7.11328,3.09571 c -3.91226,1.70301 -8.95869,3.87075 -11.21484,4.8164 -6.4071,2.6855 -18.68504,12.3898 -20.37891,16.10742 -2.77025,6.08009 3.33584,12.54297 11.85157,12.54297 2.91219,0 6.42417,1.21383 8.99609,3.11133 8.37224,6.17687 21.06883,10.2207 32.08984,10.2207 7.52451,0 8.40284,0.30013 9.78516,3.33399 0.83532,1.83333 2.02305,3.33398 2.63867,3.33398 0.61562,0 1.11914,0.7165 1.11914,1.59375 0,1.92618 5.98852,10.7327 10.8086,15.89258 1.92219,2.05774 5.0326,6.98577 6.91015,10.95117 2.66276,5.62385 4.90685,8.12713 10.20117,11.38477 3.7331,2.29701 7.39208,4.17773 8.13086,4.17773 0.73877,0 6.0058,4.34935 11.70508,9.66602 9.4561,8.82122 32.86869,23.66601 37.32422,23.66601 0.87301,0 1.58594,0.77546 1.58594,1.72266 0,2.11499 -9.7362,30.86762 -17.47657,51.61133 l -5.7207,15.33398 -0.10547,20 c -0.0575,10.99997 -0.61633,38.59879 -1.24414,61.33203 -0.98148,35.53963 -0.8452,42.8852 0.97656,52.40625 2.36379,12.35369 6.68807,21.40934 11.32813,23.72266 1.69295,0.84403 3.01877,1.93636 2.94727,2.42774 -0.0715,0.49134 2.81005,3.2171 6.40234,6.05664 8.44955,6.67899 16.73453,16.80679 15.78125,19.29101 -0.40816,1.06363 -5.60616,3.46975 -11.55078,5.34766 -11.60393,3.66566 -19.79128,4.09958 -29.33789,1.55273 l -6,-1.60156 0.46484,-12.19531 c 0.4114,-10.80921 0.0779,-13.03825 -2.92773,-19.60352 -2.36489,-5.16555 -4.82587,-8.25314 -8.13086,-10.20312 -5.59669,-3.30214 -5.3755,-0.56255 -3.16211,-39.41993 1.77148,-31.09933 0.8114,-45.67255 -4.28321,-65.00976 -2.49096,-9.45486 -2.60105,-11.27016 -1.03906,-17.33203 1.16138,-4.50719 1.73223,-15.69004 1.70703,-33.43946 -0.0315,-22.18842 -0.53894,-29.17227 -3.02539,-41.59179 -5.79459,-28.94334 -14.53671,-49.26078 -25.68164,-59.68555 -8.97234,-8.39257 -12.73781,-8.26324 -24.03515,0.82422 -22.49332,18.09332 -45.69477,22.78904 -87.88672,17.78906 -9.16664,-1.0863 -23.2654,-2.33383 -31.33203,-2.77148 -22.87003,-1.24078 -36.52019,-6.12775 -51.73243,-18.51953 -15.08145,-12.28528 -21.02477,-10.91257 -31.54687,7.28125 -4.03216,6.97199 -5.18285,10.54105 -5.86328,18.18359 -1.69809,19.07278 -11.67788,42.79369 -26.57031,63.1582 -7.85824,10.74564 -8.31149,11.13077 -8.73243,7.4375 -0.63668,-5.58624 3.35599,-17.2068 7.85743,-22.87109 3.78382,-4.76139 3.80481,-8.16684 0.0645,-10.47852 -0.64638,-0.39949 -0.32419,-3.19728 0.7168,-6.21875 2.23486,-6.4868 1.45545,-9.83229 -2.97071,-12.73242 l -3.24219,-2.12304 5.77344,-3.66211 c 8.87612,-5.62909 10.41988,-11.98185 6.81055,-28.02344 -0.73667,-3.27411 0.61836,-5.58976 10.32031,-17.63867 l 2.9336,-3.64258 -4.08594,-5.69141 c -2.24728,-3.12952 -5.05735,-7.7888 -6.24414,-10.35547 -1.18678,-2.56664 -4.23387,-7.96667 -6.77149,-12 -2.53759,-4.0333 -4.63751,-8.36648 -4.66601,-9.6289 -0.0798,-3.52655 5.7612,-15.61958 11.12695,-23.03516 7.2132,-9.96881 6.71349,-12.08273 -4.99023,-21.06055 -2.66965,-2.04783 -7.25411,-6.97253 -10.1875,-10.94336 -5.16462,-6.99106 -5.33311,-7.54812 -5.28711,-17.60937 0.0261,-5.71462 0.84095,-13.70523 1.81054,-17.75781 2.90292,-12.1333 15.50719,-36.9357 24.89258,-48.98438 l 8.58399,-11.01953 45.33203,0.85742 c 58.59387,1.10946 74.56713,-0.23531 137.33398,-11.56836 16.13331,-2.91297 30.83269,-5.59724 32.66602,-5.96484 z m -230.66601,18.35938 -2.66797,3.125 c -1.46667,1.71886 -4.05396,4.64944 -5.75,6.51171 -2.6319,2.88991 -12.51124,22.09709 -20.89844,40.62891 -1.7441,3.85364 -2.53845,9.8637 -2.99219,22.66797 -0.54888,15.48889 -0.34325,17.77282 1.84571,20.57227 11.03305,14.11013 13.77989,17.17731 17.47851,19.51757 2.31794,1.46667 4.23733,3.27701 4.26563,4.02344 0.0282,0.74644 -1.57192,3.74579 -3.55664,6.66602 -6.05329,8.90637 -11.0586,20.42587 -11.0586,25.45312 0,2.74952 1.1284,6.20539 2.66602,8.16016 1.46667,1.86456 2.66797,4.48502 2.66797,5.82422 0,1.3392 1.16745,3.52289 2.5957,4.85351 1.42825,1.33062 4.62379,6.44804 7.10156,11.3711 l 4.50586,8.95117 -3.22851,3.01562 c -1.7758,1.65822 -4.74435,5.58873 -6.59571,8.73633 -3.28876,5.59147 -3.31511,5.85381 -1.20508,11.37891 3.85658,10.09828 3.06473,13.37339 -4.38867,18.15625 -9.22506,5.91969 -10.49151,10.38607 -4.8457,17.0957 2.95438,3.51108 3.12901,4.36444 1.78125,8.75586 -1.08149,3.52394 -1.09506,5.74402 -0.0449,8.04883 0.79752,1.75037 0.94217,3.70574 0.32031,4.3457 -0.62185,0.63996 -2.91317,5.67286 -5.0918,11.18359 -3.35057,8.47523 -3.92573,11.66 -3.73047,20.66602 l 0.23047,10.64648 -11.36914,11.35352 c -6.25307,6.24393 -17.51852,16.65628 -25.03515,23.13867 L 87.999307,777.6101 v 7.0625 c 0,14.96423 7.56696,50.79648 16.892583,79.99414 4.11844,12.89452 22.7738,61.94834 25.60742,67.33398 0.57875,1.1 5.8439,3.56373 11.70117,5.47657 5.85726,1.91282 12.1692,4.47323 14.02539,5.68945 3.67181,2.40586 11.1423,14.94055 9.4707,15.89062 -3.49064,1.98394 -19.79437,6.43459 -27.69726,7.56055 -9.35959,1.33351 -11.74452,1.37959 -20.97071,0.41211 l -4.9707,-0.52148 0.69141,-8.25391 c 0.38033,-4.54001 0.92403,-10.17429 1.20898,-12.51953 0.43315,-3.56502 -0.30733,-5.00883 -4.51758,-8.8125 -2.76967,-2.50226 -7.07759,-4.93665 -9.572262,-5.41016 l -4.535156,-0.86133 -0.375,-11.6582 C 94.100659,892.33842 87.690833,869.91412 66.596964,819.77416 58.568529,800.69063 51.999307,784.50171 51.999307,783.7976 c 0,-0.7041 2.795429,-7.69691 6.210938,-15.53906 12.201552,-28.01501 20.26771,-55.80933 23.339844,-80.42579 3.010646,-24.12372 -0.157921,-43.08243 -18.089844,-108.24804 -13.622596,-49.50529 -14.688054,-58.3361 -9.207031,-76.25196 6.249702,-20.4284 25.08266,-42.36214 51.746096,-60.26367 16.76445,-11.25548 36.51782,-18.88136 54.68164,-21.11133 z M 51.979776,482.81127 49.483682,487.739 c -1.373829,2.71036 -3.565041,8.33246 -4.86914,12.49415 l -2.371094,7.5664 -8.789062,1.51172 c -4.833395,0.83119 -10.088946,1.82839 -11.679688,2.2168 -2.128703,0.51976 -3.524215,-0.25684 -5.283203,-2.94141 l -2.388672,-3.64648 5.027344,-4.34766 c 4.949521,-4.27854 18.077295,-11.68683 27.859375,-15.72266 z M 542.22782,588.44994 c 1.86978,1.86978 -4.73498,63.07084 -10.41992,96.55078 -0.79277,4.66886 -2.08823,8.2941 -2.94531,8.2461 -0.84139,-0.0471 -4.2293,-1.83554 -7.5293,-3.97461 -4.87214,-3.15818 -7.46722,-3.89366 -13.80859,-3.91406 -6.36509,-0.0205 -7.66839,-0.39211 -7.04688,-2.01172 6.25469,-16.29944 11.52149,-42.63929 11.52149,-57.61328 0,-8.77843 0.44802,-10.56968 3.89258,-15.57618 3.94392,-5.7323 24.97553,-23.06742 26.33593,-21.70703 z m -335.50781,32.88281 c 0.63277,0 6.51978,4.65065 13.08203,10.33399 8.4649,7.33111 17.59735,12.96953 20.50391,13.01758 l 0.0176,0.0449 4.30078,0.80859 3.46679,0.125 2.27539,-0.20703 8.9668,2.28711 -0.27148,6.58399 c -0.4939,11.97067 -4.29174,26.16889 -10.36719,38.75585 -7.74906,16.0543 -8.92395,17.73227 -10.91797,15.59766 -0.84751,-0.90726 -6.5332,-2.08494 -12.63476,-2.61719 -6.1016,-0.53225 -12.19433,-1.55571 -13.53907,-2.27539 -1.34473,-0.71968 -3.54586,-3.87648 -4.89062,-7.01367 -2.87956,-6.71771 -7.46958,-10.65345 -15.92969,-13.6582 l -6.15039,-2.1836 3.64062,-10.79882 c 2.00198,-5.93971 4.03813,-14.25017 4.52344,-18.4668 0.31381,-2.72652 0.79783,-4.7144 1.28125,-6.07422 l 0.002,-0.002 1.99804,-5.59766 c 0,0 0.0577,0.0322 0.0781,0.043 l 0.54687,-1.55078 c 1.39126,-7.2558 6.78285,-17.15235 10.01758,-17.15235 z m -25.52539,69.63477 c 0.69368,0.0235 1.55349,0.16873 2.67383,0.37891 7.94853,1.49116 12.13918,4.45386 14.70508,10.39648 1.32775,3.07516 3.57158,6.62465 4.98632,7.88867 3.71938,3.32307 12.67389,6.18189 22.52735,7.19141 4.71828,0.4834 8.58008,1.12795 8.58008,1.43359 0,2.58803 -14.02001,19.95167 -26.90821,33.32617 -8.66764,8.99473 -15.75976,16.77831 -15.75976,17.29688 0,1.9384 17.88265,49.57787 22.94336,61.12109 12.12608,27.65914 24.93533,50.43767 34.00195,60.47071 13.65043,15.10541 24.70205,22.15715 35.53711,22.67382 5.68079,0.2709 17.88817,3.68699 21.40039,5.98829 1.69415,1.11001 4.34467,4.16046 5.88867,6.77734 l 2.80664,4.75781 -4.95508,2.07813 c -2.72547,1.14351 -8.95055,3.18981 -13.83203,4.54687 -9.44028,2.62442 -23.52325,4.14624 -29.26367,3.16211 -3.21998,-0.55202 -3.57349,-1.32121 -4.87109,-10.56836 -0.76966,-5.48491 -2.06903,-10.77842 -2.88672,-11.76367 -2.33194,-2.80982 -12.861,-5.22224 -18.70899,-4.28711 l -5.28711,0.84375 -17.53125,-34.33984 c -9.64243,-18.88727 -23.24928,-45.74053 -30.23632,-59.67383 l -12.70313,-25.33399 -14.32812,-14 -14.32813,-14 5.2832,-6.66601 c 16.28298,-20.55017 21.32115,-31.6417 23.01368,-50.66602 0.45669,-5.1333 1.81804,-11.62959 3.02539,-14.43554 1.56794,-3.64405 2.14553,-4.66805 4.22656,-4.59766 z m 322.36523,3.47656 c 4.23525,0.21452 9.54334,1.64715 14.43946,4.22266 4.18224,2.2 8.29452,4.00191 9.13672,4.00391 1.06613,0.002 1.59323,5.42436 1.73632,17.85156 0.11728,10.18506 1.4704,26.64322 3.15039,38.33008 3.40104,23.65892 13.24544,64.38817 17.68165,73.14843 10.8954,21.51546 11.55276,22.33874 24.9121,31.26953 12.94498,8.6538 23.86554,18.53998 21.8379,19.76954 -0.61646,0.37382 -4.38019,1.64311 -8.36329,2.82031 -8.00861,2.36695 -16.31371,2.54022 -25.42382,0.53125 -8.11773,-1.79012 -8.83532,-2.60537 -9.84375,-11.18555 -0.48068,-4.08982 -1.73254,-9.09507 -2.78125,-11.12305 -2.58734,-5.00333 -10.18617,-11.48094 -15.88868,-13.54296 -4.41603,-1.59687 -4.74074,-2.12751 -5.56445,-9.11719 -1.31822,-11.18593 -4.20492,-24.37267 -8.75781,-40.00195 -5.60228,-19.23153 -11.69696,-52.50294 -12.7168,-69.41993 -0.73,-12.10912 -1.27629,-14.52025 -4.04297,-17.8457 -4.94267,-5.94092 -8.33821,-13.45698 -7.50976,-16.625 0.6007,-2.2971 3.76282,-3.30045 7.99804,-3.08594 z" />
  </g>
</svg>

